<?xml version="1.0" standalone="no"?>
<!DOCTYPE svg PUBLIC "-//W3C//DTD SVG 20010904//EN"
 "http://www.w3.org/TR/2001/REC-SVG-20010904/DTD/svg10.dtd">
<svg version="1.0" xmlns="http://www.w3.org/2000/svg"
 width="792.000000pt" height="792.000000pt" viewBox="0 0 792.000000 792.000000"
 preserveAspectRatio="xMidYMid meet">
<metadata>
Created by potrace 1.14, written by Peter Selinger 2001-2017
</metadata>
<g transform="translate(0.000000,792.000000) scale(0.100000,-0.100000)"
fill="#000000" stroke="none">
<path d="M1278 7905 c-43 -8 -88 -17 -100 -21 -13 -4 -26 -7 -30 -6 -12 3
-160 -48 -248 -85 -75 -32 -211 -108 -248 -138 -7 -5 -18 -15 -25 -20 -7 -6
-25 -19 -41 -29 -42 -27 -147 -125 -224 -210 -129 -143 -288 -452 -317 -615
-3 -19 -8 -37 -10 -40 -2 -4 -7 -27 -10 -51 -4 -25 -10 -56 -13 -70 -10 -40
-12 -5251 -3 -5300 5 -25 11 -61 14 -80 14 -101 73 -279 134 -405 34 -70 108
-187 168 -265 54 -70 213 -228 237 -236 10 -3 18 -9 18 -14 0 -9 173 -123 216
-142 16 -6 40 -19 54 -28 52 -34 298 -115 383 -126 23 -3 60 -10 82 -15 23 -5
1163 -7 2675 -6 2436 3 2640 4 2700 20 36 9 79 19 96 22 17 3 62 17 100 31 38
14 74 27 79 28 6 1 27 10 49 19 21 9 42 17 47 17 5 0 9 4 9 8 0 4 16 14 35 21
45 16 244 149 296 198 58 54 118 114 163 165 59 65 178 253 218 343 38 87 88
224 94 265 3 14 7 32 10 40 3 8 8 33 11 55 2 22 9 58 14 80 11 49 7 5288 -4
5330 -4 17 -17 71 -29 120 -18 80 -76 247 -95 279 -4 6 -8 18 -10 26 -1 8 -7
16 -12 18 -6 2 -11 11 -11 20 0 10 -9 28 -20 42 -11 14 -20 28 -20 31 0 9 -56
92 -103 154 -127 165 -342 342 -520 428 -72 34 -264 108 -275 105 -4 -1 -27 4
-52 12 -25 7 -61 15 -80 17 -19 2 -53 8 -75 13 -24 6 -1096 9 -2645 8 -2085 0
-2620 -3 -2682 -13z"/>
</g>
</svg>
